<?xml version="1.0" encoding="utf-8"?>
<!-- Generator: Adobe Illustrator 16.0.0, SVG Export Plug-In . SVG Version: 6.00 Build 0)  -->
<!DOCTYPE svg PUBLIC "-//W3C//DTD SVG 1.1//EN" "http://www.w3.org/Graphics/SVG/1.1/DTD/svg11.dtd">
<svg version="1.1" id="Layer_2" xmlns="http://www.w3.org/2000/svg" xmlns:xlink="http://www.w3.org/1999/xlink" x="0px" y="0px"
	 width="792px" height="792px" viewBox="0 0 792 792" enable-background="new 0 0 792 792" xml:space="preserve">
<g id="LOGO">
	<circle fill="#FFFFFF" stroke="#010101" stroke-miterlimit="10" cx="400.561" cy="376.879" r="156.125"/>
	<circle id="circle2_1_" fill="#090A0A" cx="400.471" cy="376.881" r="151.014"/>
	<g>
		<path opacity="0.35" fill="none" stroke="#D3DADF" stroke-miterlimit="10" d="M446.486,436.98c0-6.936-5.645-12.588-12.592-12.588
			c-6.939,0-12.586,5.652-12.586,12.588c0,5.463,3.52,10.078,8.393,11.816v9.945c-4.873,1.736-8.393,6.352-8.393,11.814
			c0,6.941,5.646,12.594,12.586,12.594c6.947,0,12.592-5.652,12.592-12.594c0-5.463-3.52-10.078-8.396-11.814v-9.945
			C442.967,447.059,446.486,442.443,446.486,436.98z M433.895,432.783c2.309,0,4.195,1.887,4.195,4.197
			c0,2.314-1.887,4.193-4.195,4.193c-2.313,0-4.193-1.879-4.193-4.193C429.701,434.67,431.582,432.783,433.895,432.783z
			 M433.895,474.752c-2.313,0-4.193-1.883-4.193-4.197s1.881-4.195,4.193-4.195c2.309,0,4.195,1.881,4.195,4.195
			S436.203,474.752,433.895,474.752z M496.072,290.1c-1.736-4.869-6.354-8.393-11.818-8.393c-6.945,0-12.592,5.648-12.592,12.588
			c0,5.467,3.525,10.08,8.398,11.818v4.969h-23.447l-11.391-11.394c0.787-1.636,1.264-3.45,1.264-5.394
			c0-6.939-5.645-12.588-12.592-12.588c-6.939,0-12.586,5.648-12.586,12.588c0,6.941,5.646,12.594,12.586,12.594
			c1.941,0,3.754-0.479,5.396-1.262l13.846,13.851h26.924v6.655l-14.324,14.328H462.5c-1.738-4.873-6.354-8.393-11.818-8.393
			c-6.945,0-12.592,5.646-12.592,12.588c0,1.939,0.477,3.752,1.27,5.393l-4.508,4.504c-2.145-4.857-5.313-9.264-9.357-12.881
			c-7.99-7.154-18.773-10.59-29.5-9.365c-13.406,1.496-24.84,10.305-30.176,22.256l-4.521-4.514
			c0.783-1.641,1.256-3.453,1.256-5.393c0-6.941-5.646-12.588-12.584-12.588c-5.471,0-10.082,3.52-11.822,8.393h-3.234
			l-14.33-14.328v-20.02c4.881-1.738,8.4-6.352,8.4-11.818c0-3.027-1.115-5.769-2.908-7.947l21.43-21.43h30.098l18.525,18.527
			v17.508l-5.936,5.936h-7.432c-1.736-4.873-6.35-8.395-11.82-8.395c-6.938,0-12.586,5.65-12.586,12.588
			c0,6.941,5.648,12.593,12.586,12.593c5.471,0,10.084-3.521,11.82-8.392h10.906l10.848-10.857v-20.98l18.531-18.527h32.605
			c1.742,4.873,6.352,8.396,11.822,8.396c6.939,0,12.588-5.65,12.588-12.59c0-6.943-5.648-12.59-12.588-12.59
			c-5.471,0-10.08,3.52-11.822,8.393h-36.086l-19.242,19.249l-19.246-19.249h-37.047l-25.408,25.406
			c-0.723-0.133-1.473-0.227-2.229-0.227c-5.467,0-10.08,3.523-11.818,8.393h-6.707l-27.641,27.64v49.638l9.66,9.656
			c-0.793,1.637-1.268,3.453-1.268,5.391c0,1.941,0.475,3.756,1.268,5.393l-9.66,9.656v37.049l23.441,23.443h10.906
			c1.266,3.555,4.064,6.355,7.621,7.623v15.096l27.635,27.641h37.051l23.441-23.443l23.441,23.443h37.049l27.635-27.641v-15.096
			c3.555-1.268,6.359-4.068,7.625-7.623h10.9l23.449-23.443v-37.049l-9.658-9.656c0.789-1.637,1.258-3.451,1.258-5.393
			c0-1.938-0.469-3.754-1.258-5.391l9.658-9.656v-49.638l-27.646-27.64H496.072z M429.701,294.295c0-2.309,1.881-4.195,4.193-4.195
			c2.309,0,4.195,1.887,4.195,4.195c0,2.316-1.887,4.199-4.195,4.199C431.582,298.494,429.701,296.611,429.701,294.295z
			 M370.939,315.283c-2.303,0-4.186-1.888-4.186-4.201c0-2.312,1.883-4.193,4.186-4.193c2.318,0,4.203,1.882,4.203,4.193
			C375.143,313.396,373.258,315.283,370.939,315.283z M467.473,256.527c2.305,0,4.189,1.887,4.189,4.197
			c0,2.312-1.885,4.193-4.189,4.193c-2.318,0-4.203-1.882-4.203-4.193C463.27,258.414,465.154,256.527,467.473,256.527z
			 M484.254,290.1c2.313,0,4.193,1.887,4.193,4.195c0,2.316-1.881,4.199-4.193,4.199s-4.193-1.883-4.193-4.199
			C480.061,291.986,481.941,290.1,484.254,290.1z M450.682,340.461c2.311,0,4.193,1.883,4.193,4.195
			c0,2.311-1.883,4.195-4.193,4.195c-2.314,0-4.195-1.885-4.195-4.195C446.486,342.344,448.367,340.461,450.682,340.461z
			 M371.176,366.113c1.625-13.27,12.453-23.975,25.746-25.461c1.156-0.131,2.303-0.191,3.439-0.191
			c7.25,0,14.078,2.592,19.537,7.475c6.227,5.568,9.803,13.553,9.803,21.9c0,7.971-3.213,15.465-8.879,20.984h-16.309v-9.164
			c4.881-1.74,8.4-6.355,8.4-11.82c0-6.941-5.648-12.592-12.592-12.592c-6.941,0-12.59,5.65-12.59,12.592
			c0,5.465,3.52,10.08,8.395,11.82v9.164h-16.273C373.281,384.418,370.039,375.396,371.176,366.113z M400.322,449.572
			c-2.313,0-4.195-1.885-4.195-4.195c0-2.314,1.883-4.203,4.195-4.203c2.309,0,4.191,1.889,4.191,4.203
			C404.514,447.688,402.631,449.572,400.322,449.572z M387.732,415.998c-2.311,0-4.193-1.883-4.193-4.197v-12.59h33.568v12.59
			c0,2.314-1.881,4.197-4.193,4.197H387.732z M396.127,369.836c0-2.313,1.883-4.197,4.195-4.197c2.309,0,4.191,1.885,4.191,4.197
			c0,2.311-1.883,4.197-4.191,4.197C398.01,374.033,396.127,372.146,396.127,369.836z M349.969,340.461
			c2.305,0,4.191,1.883,4.191,4.195c0,2.311-1.887,4.195-4.191,4.195c-2.318,0-4.201-1.885-4.201-4.195
			C345.768,342.344,347.65,340.461,349.969,340.461z M316.393,290.1c2.313,0,4.189,1.887,4.189,4.195
			c0,2.316-1.877,4.199-4.189,4.199c-2.316,0-4.197-1.883-4.197-4.199C312.195,291.986,314.076,290.1,316.393,290.1z
			 M291.209,386.621c-2.309,0-4.201-1.879-4.201-4.197c0-2.309,1.893-4.195,4.201-4.195c2.316,0,4.199,1.887,4.199,4.195
			C295.408,384.742,293.525,386.621,291.209,386.621z M312.195,453.768c0-2.311,1.881-4.195,4.197-4.195
			c2.313,0,4.189,1.885,4.189,4.195s-1.877,4.197-4.189,4.197C314.076,457.965,312.195,456.078,312.195,453.768z M373.404,499.932
			h-30.1l-22.723-22.723v-11.621c4.881-1.74,8.4-6.357,8.4-11.82c0-6.943-5.648-12.594-12.59-12.594
			c-5.467,0-10.08,3.527-11.818,8.398h-7.43l-18.525-18.525v-30.096l7.199-7.199c1.641,0.789,3.449,1.264,5.391,1.264
			c1.938,0,3.752-0.475,5.391-1.264l13.855,13.855h10.904c1.74,4.869,6.35,8.391,11.814,8.391c6.945,0,12.594-5.65,12.594-12.588
			c0-6.939-5.648-12.59-12.594-12.59c-5.465,0-10.074,3.516-11.814,8.391h-7.43l-11.395-11.395c0.793-1.637,1.266-3.451,1.266-5.393
			c0-6.939-5.656-12.588-12.592-12.588c-1.941,0-3.75,0.475-5.391,1.266l-7.199-7.199v-42.688l22.727-22.721h3.229
			c1.266,3.554,4.064,6.352,7.621,7.619v23.496l19.242,19.242h6.709c1.74,4.873,6.352,8.393,11.822,8.393
			c1.936,0,3.748-0.473,5.389-1.26l7.715,7.719c-0.074,0.463-0.174,0.916-0.23,1.387c-1.525,12.467,3.055,24.605,12.301,32.875
			v13.836c0,6.943,5.646,12.592,12.59,12.592h8.395v9.166c-4.875,1.738-8.395,6.355-8.395,11.818s3.52,10.08,8.395,11.818v20.014
			L373.404,499.932z M328.982,403.41c0-2.313,1.881-4.199,4.191-4.199c2.313,0,4.205,1.887,4.205,4.199
			c0,2.311-1.893,4.197-4.205,4.197C330.863,407.607,328.982,405.721,328.982,403.41z M484.254,457.965
			c-2.313,0-4.193-1.887-4.193-4.197s1.881-4.195,4.193-4.195s4.193,1.885,4.193,4.195S486.566,457.965,484.254,457.965z
			 M505.236,382.424c0-2.309,1.887-4.195,4.199-4.195c2.311,0,4.195,1.887,4.195,4.195c0,2.318-1.885,4.197-4.195,4.197
			C507.123,386.621,505.236,384.742,505.236,382.424z M522.021,363.902l-7.197,7.199c-1.637-0.791-3.453-1.266-5.389-1.266
			c-6.939,0-12.59,5.648-12.59,12.588c0,1.941,0.471,3.756,1.26,5.393l-11.396,11.395h-7.424c-1.73-4.875-6.352-8.391-11.813-8.391
			c-6.945,0-12.598,5.65-12.598,12.59c0,6.938,5.652,12.588,12.598,12.588c5.461,0,10.082-3.521,11.813-8.391h10.898l13.857-13.855
			c1.639,0.789,3.455,1.264,5.395,1.264c1.936,0,3.752-0.475,5.389-1.264l7.197,7.199v30.096l-18.525,18.525h-7.424
			c-1.736-4.871-6.354-8.398-11.818-8.398c-6.945,0-12.592,5.65-12.592,12.594c0,5.463,3.525,10.08,8.398,11.82v11.621
			l-22.725,22.723h-30.098l-22.725-22.723v-20.014c4.881-1.738,8.4-6.355,8.4-11.818s-3.52-10.08-8.4-11.818v-9.166h8.4
			c6.941,0,12.584-5.648,12.584-12.592v-13.834c8.033-7.176,12.592-17.316,12.592-28.131c0-2.059-0.215-4.096-0.547-6.107
			l7.748-7.744c1.643,0.787,3.451,1.26,5.391,1.26c5.465,0,10.08-3.52,11.818-8.393h6.709l19.238-19.242v-23.496
			c3.555-1.268,6.359-4.065,7.625-7.619h3.232l22.717,22.721V363.902z M471.662,403.41c0,2.311-1.885,4.197-4.189,4.197
			c-2.318,0-4.203-1.887-4.203-4.197c0-2.313,1.885-4.199,4.203-4.199C469.777,399.211,471.662,401.098,471.662,403.41z
			 M366.754,424.393c-6.945,0-12.594,5.652-12.594,12.588c0,5.463,3.52,10.078,8.393,11.816v3.236l-7.195,7.197
			c-1.641-0.789-3.453-1.266-5.389-1.266c-6.947,0-12.59,5.648-12.59,12.59s5.643,12.59,12.59,12.59
			c6.938,0,12.584-5.648,12.584-12.59c0-1.939-0.473-3.752-1.264-5.391l9.65-9.66v-6.707c4.881-1.738,8.4-6.354,8.4-11.816
			C379.34,430.045,373.691,424.393,366.754,424.393L366.754,424.393z M349.969,474.752c-2.318,0-4.201-1.883-4.201-4.197
			s1.883-4.195,4.201-4.195c2.305,0,4.191,1.881,4.191,4.195S352.273,474.752,349.969,474.752z M366.754,441.174
			c-2.318,0-4.201-1.879-4.201-4.193c0-2.311,1.883-4.197,4.201-4.197c2.305,0,4.186,1.887,4.186,4.197
			C370.939,439.295,369.059,441.174,366.754,441.174z"/>
	</g>
	<rect x="310.596" y="324.15" fill="#4571B6" width="57.044" height="56.219"/>
	<rect x="315.348" y="328.834" fill="#090A0A" width="47.537" height="46.85"/>
	<line fill="none" stroke="#231F20" stroke-miterlimit="10" x1="310.596" y1="324.15" x2="318.856" y2="332.289"/>
	<line fill="none" stroke="#231F20" stroke-miterlimit="10" x1="361.584" y1="330.113" x2="367.64" y2="324.15"/>
	<line fill="none" stroke="#231F20" stroke-miterlimit="10" x1="361.1" y1="373.924" x2="367.64" y2="380.369"/>
	
		<line fill="none" stroke="#231F20" stroke-linejoin="round" stroke-miterlimit="10" x1="317.391" y1="373.672" x2="310.596" y2="380.369"/>
	<text transform="matrix(1.0147 0 0 1 331.4575 360.3496)" fill="#4571B6" font-family="'OCRAExtended'" font-size="24.9895">C</text>
	<g>
		<rect x="310.752" y="383.104" fill="#4571B6" width="177.788" height="56.219"/>
		<g>
			<rect x="315.506" y="387.785" fill="#090A0A" width="168.283" height="46.852"/>
			<line fill="none" stroke="#231F20" stroke-miterlimit="10" x1="310.752" y1="383.104" x2="317.389" y2="389.641"/>
			<line fill="none" stroke="#231F20" stroke-miterlimit="10" x1="482.381" y1="389.17" x2="488.54" y2="383.104"/>
			<line fill="none" stroke="#231F20" stroke-miterlimit="10" x1="482.158" y1="433.035" x2="488.54" y2="439.322"/>
			<line fill="none" stroke="#231F20" stroke-miterlimit="10" x1="318.815" y1="431.375" x2="310.752" y2="439.322"/>
		</g>
	</g>
	<text transform="matrix(1.0147 0 0 1 338.3926 419.3047)"><tspan x="0" y="0" fill="#FFFFFF" font-family="'OCRAExtended'" font-size="24.9895">SIES</tspan><tspan x="60.375" y="0" fill="#4571B6" font-family="'OCRAExtended'" font-size="24.9895">_</tspan><tspan x="75.469" y="0" fill="#FFFFFF" font-family="'OCRAExtended'" font-size="24.9895">GST</tspan></text>
	<rect x="371.123" y="324.15" fill="#4571B6" width="57.047" height="56.219"/>
	<rect x="375.881" y="328.834" fill="#090A0A" width="47.537" height="46.85"/>
	<line fill="none" stroke="#231F20" stroke-miterlimit="10" x1="371.123" y1="324.15" x2="378.104" y2="331.02"/>
	<line fill="none" stroke="#231F20" stroke-miterlimit="10" x1="421.196" y1="331.02" x2="428.17" y2="324.15"/>
	<line fill="none" stroke="#231F20" stroke-miterlimit="10" x1="422.529" y1="374.809" x2="428.17" y2="380.369"/>
	<line fill="none" stroke="#231F20" stroke-miterlimit="10" x1="376.77" y1="374.809" x2="371.123" y2="380.369"/>
	<text transform="matrix(1.0147 0 0 1 391.9902 360.3496)" fill="#4571B6" font-family="'OCRAExtended'" font-size="24.9895">S</text>
	<rect x="431.338" y="324.15" fill="#4571B6" width="57.044" height="56.219"/>
	<rect x="436.094" y="328.834" fill="#090A0A" width="47.539" height="46.85"/>
	<line fill="none" stroke="#231F20" stroke-miterlimit="10" x1="431.338" y1="324.15" x2="437.359" y2="330.08"/>
	<line fill="none" stroke="#231F20" stroke-miterlimit="10" x1="482.848" y1="329.607" x2="488.382" y2="324.15"/>
	<line fill="none" stroke="#231F20" stroke-miterlimit="10" x1="482.381" y1="374.453" x2="488.382" y2="380.369"/>
	<line fill="none" stroke="#231F20" stroke-miterlimit="10" x1="438.057" y1="373.75" x2="431.338" y2="380.369"/>
	<text transform="matrix(1.0147 0 0 1 452.2012 360.3496)" fill="#4571B6" font-family="'OCRAExtended'" font-size="24.9895">I</text>
	<g>
		<rect x="263.512" y="366.182" fill="#3A464F" width="30.361" height="21.398"/>
		<polygon fill="#DADDE9" points="293.873,384.525 293.873,369.238 306.393,369.395 306.395,384.525 		"/>
		<path fill="#566C7A" d="M285.146,384.67v-3.057l-3.129-0.002v0.768l0,0l-2.568-0.002l-1.773-4.584h9.676l-0.953,0.932
			c-0.307,0.301-0.307,0.783,0,1.08c0.301,0.301,0.803,0.301,1.1,0l2.205-2.148c0.313-0.301,0.313-0.781,0-1.084l-2.764-2.697
			c-0.309-0.301-0.801-0.301-1.111,0c-0.299,0.295-0.297,0.779,0,1.076l1.348,1.309h-11.85l1.754-4.582h2.59
			c0.186,0,0.34-0.068,0.48-0.174c0.049,0.068,0.102,0.133,0.158,0.195c0.617,0.6,1.604,0.6,2.219,0c0.607-0.598,0.607-1.564,0-2.16
			c-0.615-0.598-1.602-0.598-2.219,0c-0.193,0.189-0.324,0.42-0.395,0.658c-0.076-0.025-0.152-0.049-0.244-0.051h-3.129
			c-0.328,0-0.621,0.197-0.732,0.5l-2.154,5.613h-1.811c-0.145,0-0.268,0.051-0.389,0.111c-0.104-0.322-0.291-0.629-0.557-0.887
			c-0.916-0.896-2.398-0.896-3.318-0.002c-0.916,0.893-0.916,2.346,0,3.242c0.92,0.896,2.402,0.896,3.32,0
			c0.305-0.291,0.494-0.65,0.602-1.023c0.1,0.053,0.219,0.092,0.342,0.092h2.377c0.002,0,0.004,0,0.004,0H276l2.18,5.619
			c0.037,0.1,0.105,0.193,0.182,0.27c0.145,0.143,0.34,0.227,0.551,0.227h3.105l0,0v0.762H285.146z"/>
		<polygon fill="#B0B4C4" points="299.25,375.137 299.25,371.65 302.791,371.648 302.789,375.137 		"/>
		<polygon fill="#B0B4C4" points="299.25,382.113 299.25,378.625 302.791,378.625 302.789,382.113 		"/>
	</g>
	<polygon fill="#FFFFFF" points="530.914,376.258 530.915,376.256 511.284,376.256 511.284,380.992 528.41,380.992 528.41,380.994 
		555.023,380.994 555.023,376.258 	"/>
	<polygon fill="#FFFFFF" points="254.241,374.516 254.242,374.514 246.693,374.514 246.693,379.25 253.278,379.25 253.278,379.252 
		263.512,379.252 263.512,374.516 	"/>
	<g>
		<polygon fill="#3A464F" points="539.493,372.512 539.493,384.742 523.593,389.635 507.692,389.635 507.692,367.617 
			523.593,367.617 		"/>
		<path fill="#D3DADF" d="M507.692,384.742c3.375,0,6.113-2.738,6.113-6.117c0-3.377-2.738-6.113-6.113-6.113V384.742z"/>
		<polygon fill="#BCC2C6" points="493.011,383.52 502.796,383.52 502.796,381.072 507.692,381.072 507.692,376.18 502.796,376.18 
			502.796,373.732 493.011,373.732 		"/>
		<g>
			<polygon fill="#EDEFEF" points="502.796,383.52 494.235,383.52 494.235,388.41 507.692,388.41 507.692,381.072 502.796,381.072 
							"/>
			<polygon fill="#EDEFEF" points="494.235,373.732 502.796,373.732 502.796,376.18 507.692,376.18 507.692,368.84 494.235,368.84 
							"/>
		</g>
		<g>
			<path fill="#566C7A" d="M535.825,382.295v3.951c0,0.678-0.549,1.223-1.225,1.223s-1.223-0.545-1.223-1.223v-3.951
				c0-0.676,0.547-1.223,1.223-1.223S535.825,381.619,535.825,382.295"/>
			<path fill="#566C7A" d="M535.825,371.004v3.951c0,0.678-0.549,1.225-1.225,1.225s-1.223-0.547-1.223-1.225v-3.951
				c0-0.678,0.547-1.223,1.223-1.223S535.825,370.326,535.825,371.004"/>
			<path fill="#566C7A" d="M530.931,382.295v5.459c0,0.676-0.545,1.223-1.223,1.223s-1.225-0.547-1.225-1.223v-5.459
				c0-0.676,0.547-1.223,1.225-1.223S530.931,381.619,530.931,382.295"/>
			<path fill="#566C7A" d="M530.931,369.5v5.457c0,0.678-0.545,1.223-1.223,1.223s-1.225-0.545-1.225-1.223V369.5
				c0-0.678,0.547-1.223,1.225-1.223S530.931,368.822,530.931,369.5"/>
			<path fill="#566C7A" d="M526.04,382.295v6.963c0,0.678-0.549,1.225-1.225,1.225s-1.223-0.547-1.223-1.225v-6.963
				c0-0.676,0.547-1.223,1.223-1.223S526.04,381.619,526.04,382.295"/>
			<path fill="#566C7A" d="M526.04,367.994v6.961c0,0.678-0.549,1.225-1.225,1.225s-1.223-0.547-1.223-1.225v-6.961
				c0-0.678,0.547-1.225,1.223-1.225S526.04,367.316,526.04,367.994"/>
			<path fill="#566C7A" d="M521.147,382.295v7.34c0,0.678-0.547,1.223-1.225,1.223s-1.225-0.545-1.225-1.223v-7.34
				c0-0.676,0.547-1.223,1.225-1.223S521.147,381.619,521.147,382.295"/>
			<path fill="#566C7A" d="M521.147,367.617v7.338c0,0.68-0.547,1.225-1.225,1.225s-1.225-0.545-1.225-1.225v-7.338
				c0-0.678,0.547-1.225,1.225-1.225S521.147,366.939,521.147,367.617"/>
		</g>
	</g>
</g>
</svg>
